<?xml version="1.0" encoding="UTF-8"?>
<svg id="Camada_1" data-name="Camada 1" xmlns="http://www.w3.org/2000/svg" viewBox="0 0 2000 2000">
  <defs>
    <style>
      .cls-1 {
        fill: #ff5722;
      }
    </style>
  </defs>
  <circle class="cls-1" cx="963.88" cy="796.47" r="227.99"/>
  <path class="cls-1" d="M1192.69,232.07c-74.69-29.43-151.03-44.04-229.22-44.03-77.99.21-154.32,14.81-229.22,44.03-74.7,29.02-141.98,73.66-201.45,133.13-59.67,59.67-104.52,127.16-134.15,202.47-29.84,75.52-44.65,152.06-44.86,230.04.2,77.99,15.02,154.12,44.85,228.4,29.84,74.28,74.49,141.16,134.16,200.83l665.22,665.22v-334.16s-497.72-497.72-497.72-497.72c-36.63-36.63-63.99-77.57-82.3-123.05-18.11-45.26-27.37-91.97-27.37-139.71,0-35.8,5.14-70.99,15.63-105.76,0,0-.21-.21,0-.41,3.29-11.52,7-23.05,11.73-34.36v-.41c18.31-45.89,45.68-87.25,82.3-123.87,13.58-13.58,27.98-25.93,42.8-37.04,24.69-17.7,51.23-32.3,79.63-43.42,46.29-17.9,93-26.75,140.74-26.75,47.74,0,94.65,9.05,140.74,26.75,45.88,17.9,87.04,44.65,122.84,80.45,35.8,35.8,62.34,76.75,80.25,122.64,17.9,46.3,26.75,93,26.75,140.74,0,47.74-8.85,94.45-26.75,140.74-17.9,45.88-44.65,87.04-80.25,122.64-35.8,35.8-76.54,62.96-122.02,81.28-5.35,2.06-10.91,4.32-16.46,6.17-12.55,4.73-25.51,8.64-38.68,11.52-4.73,1.03-36.42,7.2-39.09,7.4l196.64,187.45c7.01-2.88,13.98-5.96,21.05-9.26,60.7-28.19,115.84-67.28,165.84-117.28,59.47-59.47,104.12-126.75,133.13-201.45,29.42-74.69,44.03-151.03,44.03-229.22,0-78.19-14.61-154.53-44.03-229.22-29.01-74.7-73.66-141.98-133.13-201.45-59.67-59.67-126.75-104.12-201.65-133.33Z"/>
</svg>