<?xml version="1.0" encoding="UTF-8"?>
<svg id="Camada_1" data-name="Camada 1" xmlns="http://www.w3.org/2000/svg" viewBox="0 0 2000 2000">
  <defs>
    <style>
      .cls-1 {
        fill: #ff5722;
      }
    </style>
  </defs>
  <circle class="cls-1" cx="1000.84" cy="833.44" r="155.88"/>
  <path class="cls-1" d="M1157.28,447.55c-51.06-20.12-103.26-30.11-156.72-30.11-53.32.14-105.51,10.13-156.72,30.1-51.07,19.84-97.07,50.36-137.73,91.02-40.79,40.79-71.46,86.94-91.72,138.43-20.4,51.63-30.53,103.97-30.67,157.28.14,53.32,10.27,105.37,30.67,156.16,20.4,50.79,50.93,96.51,91.72,137.31l454.81,454.81v-228.47s-340.3-340.3-340.3-340.3c-25.04-25.04-43.75-53.04-56.27-84.13-12.38-30.95-18.72-62.88-18.71-95.52,0-24.48,3.51-48.53,10.69-72.31,0,0-.14-.14,0-.28,2.25-7.88,4.78-15.76,8.02-23.5v-.28c12.52-31.37,31.23-59.65,56.27-84.69,9.29-9.29,19.13-17.73,29.26-25.32,16.88-12.1,35.03-22.09,54.44-29.68,31.65-12.24,63.59-18.29,96.22-18.29,32.64,0,64.71,6.19,96.23,18.29,31.37,12.24,59.51,30.53,83.99,55.01,24.48,24.48,42.63,52.48,54.87,83.85,12.24,31.65,18.29,63.59,18.29,96.23,0,32.64-6.05,64.57-18.29,96.23-12.24,31.37-30.53,59.51-54.87,83.85-24.48,24.48-52.33,43.05-83.42,55.57-3.66,1.41-7.46,2.96-11.25,4.22-8.58,3.24-17.44,5.91-26.45,7.88-3.23.7-24.9,4.92-26.73,5.06l134.45,128.16c4.79-1.97,9.56-4.07,14.39-6.33,41.5-19.27,79.2-46,113.39-80.19,40.66-40.66,71.19-86.66,91.02-137.73,20.12-51.07,30.1-103.26,30.1-156.72,0-53.46-9.99-105.65-30.11-156.72-19.83-51.07-50.36-97.07-91.02-137.73-40.8-40.8-86.66-71.18-137.87-91.16Z"/>
</svg>