<?xml version="1.0" encoding="UTF-8"?>
<svg id="Camada_1" data-name="Camada 1" xmlns="http://www.w3.org/2000/svg" viewBox="0 0 900 282">
  <defs>
    <style>
      .cls-1 {
        fill: #fff;
      }

      .cls-2 {
        fill: #ff5722;
      }
    </style>
  </defs>
  <g>
    <path class="cls-2" d="M114.36,87.11c-11.26-11.85-29.51-11.85-40.77,0-11.26,11.85-11.26,31.07,0,42.92s29.51,11.85,40.77,0,11.26-31.07,0-42.92Z"/>
    <path class="cls-2" d="M122.9,33.44c-9.44-3.92-19.1-5.86-28.98-5.86-9.86.03-19.51,1.97-28.98,5.86-9.44,3.86-17.95,9.81-25.47,17.72-7.54,7.94-13.22,16.93-16.96,26.95-3.77,10.05-5.65,20.24-5.67,30.62.03,10.38,1.9,20.52,5.67,30.4,3.77,9.89,9.42,18.79,16.96,26.73l84.11,88.55v-44.48s-62.93-66.26-62.93-66.26c-4.63-4.88-8.09-10.33-10.41-16.38-2.29-6.03-3.46-12.24-3.46-18.6,0-4.77.65-9.45,1.98-14.08,0,0-.03-.03,0-.05.42-1.53.88-3.07,1.48-4.57v-.05c2.32-6.11,5.78-11.61,10.41-16.49,1.72-1.81,3.54-3.45,5.41-4.93,3.12-2.36,6.48-4.3,10.07-5.78,5.85-2.38,11.76-3.56,17.79-3.56,6.04,0,11.97,1.21,17.8,3.56,5.8,2.38,11.01,5.94,15.53,10.71,4.53,4.77,7.88,10.22,10.15,16.33,2.26,6.16,3.38,12.38,3.38,18.74,0,6.35-1.12,12.57-3.38,18.74-2.26,6.11-5.65,11.59-10.15,16.33-4.53,4.77-9.68,8.38-15.43,10.82-.68.27-1.38.58-2.08.82-1.59.63-3.23,1.15-4.89,1.53-.6.14-4.6.96-4.94.99l24.86,24.95c.89-.38,1.77-.79,2.66-1.23,7.67-3.75,14.65-8.96,20.97-15.61,7.52-7.92,13.16-16.87,16.83-26.82,3.72-9.94,5.57-20.1,5.57-30.51,0-10.41-1.85-20.57-5.57-30.51-3.67-9.94-9.31-18.9-16.83-26.82-7.54-7.94-16.03-13.86-25.5-17.75Z"/>
  </g>
  <g>
    <g>
      <path class="cls-1" d="M374.88,61.41c6.14,0,11.91,1.24,17.33,3.71,5.42,2.47,10.16,5.83,14.23,10.07,4.07,4.24,7.28,9.24,9.63,15.01,2.34,5.77,3.52,11.89,3.52,18.37v45.74h-17.28v-8.56c-3.8,3.03-8,5.42-12.58,7.17-4.59,1.75-9.51,2.62-14.76,2.62-6.15,0-11.94-1.24-17.36-3.71-5.43-2.47-10.15-5.83-14.17-10.07-4.03-4.24-7.21-9.21-9.56-14.92-2.35-5.71-3.52-11.8-3.52-18.28s1.17-12.6,3.52-18.37c2.34-5.77,5.52-10.77,9.54-15.01,4.02-4.24,8.73-7.59,14.15-10.07,5.41-2.47,11.19-3.71,17.33-3.71ZM374.97,137.36c3.8,0,7.35-.77,10.65-2.31,3.3-1.54,6.18-3.61,8.64-6.22,2.46-2.61,4.42-5.66,5.87-9.15,1.45-3.49,2.18-7.2,2.18-11.11s-.73-7.79-2.18-11.28c-1.46-3.49-3.41-6.55-5.87-9.15-2.46-2.61-5.34-4.68-8.64-6.22-3.3-1.54-6.85-2.31-10.65-2.31s-7.35.77-10.65,2.31c-3.3,1.54-6.18,3.62-8.64,6.22-2.46,2.61-4.42,5.66-5.87,9.15-1.46,3.49-2.18,7.26-2.18,11.28s.73,7.61,2.18,11.11c1.45,3.49,3.41,6.55,5.87,9.15,2.46,2.61,5.34,4.68,8.64,6.22,3.3,1.54,6.85,2.31,10.65,2.31Z"/>
      <path class="cls-1" d="M724.95,61.59v52.81c0,7.07-1.55,13.54-4.66,19.43-3.11,5.89-7.31,10.66-12.62,14.31-3.12,2.12-6.46,3.77-10.03,4.94-3.57,1.18-7.3,1.77-11.2,1.77s-7.63-.59-11.19-1.77c-3.57-1.17-6.91-2.82-10.03-4.94-5.19-3.65-9.38-8.42-12.54-14.31-3.16-5.89-4.74-12.36-4.74-19.43v-52.81h17.28v52.81c0,3.06.56,5.95,1.67,8.65,1.11,2.71,2.62,5.06,4.51,7.07,1.89,2,4.15,3.59,6.77,4.77,2.62,1.18,5.38,1.77,8.27,1.77s5.62-.59,8.19-1.77c2.56-1.17,4.82-2.77,6.77-4.77,1.95-2,3.48-4.36,4.59-7.07,1.11-2.71,1.67-5.59,1.67-8.65v-52.81h17.28Z"/>
      <path class="cls-1" d="M865.82,67.6c5.26,3.65,9.45,8.45,12.58,14.39,3.13,5.95,4.7,12.45,4.7,19.52v53.16h-17.28v-53.16c0-3.06-.56-5.94-1.68-8.65-1.12-2.71-2.66-5.09-4.61-7.15-1.96-2.06-4.22-3.68-6.79-4.86-2.57-1.17-5.31-1.77-8.22-1.77s-5.68.59-8.3,1.77c-2.63,1.18-4.92,2.8-6.88,4.86-1.96,2.06-3.5,4.45-4.61,7.15-1.12,2.71-1.68,5.59-1.68,8.65v53.16h-17.28v-53.16c0-3.06-.56-5.94-1.68-8.65-1.12-2.71-2.66-5.09-4.61-7.15-1.96-2.06-4.22-3.68-6.79-4.86-2.57-1.17-5.31-1.77-8.22-1.77s-5.68.59-8.3,1.77c-2.63,1.18-4.92,2.8-6.88,4.86-1.96,2.06-3.5,4.45-4.61,7.15-1.12,2.71-1.68,5.59-1.68,8.65v53.16h-17.28V60.89h17.28v6.71c3.13-2.12,6.51-3.77,10.15-4.94,3.63-1.18,7.41-1.77,11.32-1.77s7.69.59,11.32,1.77c3.63,1.18,6.96,2.83,9.98,4.94,3.24,2.24,6.15,5.06,8.72,8.48,2.46-3.29,5.31-6.12,8.56-8.48,3.13-2.12,6.51-3.77,10.15-4.94,3.63-1.18,7.41-1.77,11.32-1.77s7.69.59,11.32,1.77c3.63,1.18,6.96,2.83,9.98,4.94Z"/>
    </g>
    <path class="cls-1" d="M306.06,89.67c-2.35-5.65-5.54-10.6-9.56-14.84-4.03-4.24-8.72-7.59-14.09-10.07-5.37-2.47-11.13-3.71-17.28-3.71s-11.94,1.24-17.36,3.71c-5.43,2.47-10.15,5.83-14.17,10.07-4.03,4.24-7.19,9.19-9.48,14.84-2.29,5.65-3.44,11.72-3.44,18.19v72.41h17.28v-35.5c3.8,3.06,7.99,5.48,12.58,7.24,4.58,1.77,9.45,2.65,14.59,2.65,6.15,0,11.91-1.24,17.28-3.71,5.37-2.47,10.07-5.83,14.09-10.07,4.03-4.24,7.21-9.18,9.56-14.83,2.35-5.65,3.52-11.72,3.52-18.19s-1.17-12.54-3.52-18.19ZM290.12,118.9c-1.45,3.47-3.41,6.51-5.87,9.1-2.46,2.59-5.34,4.65-8.64,6.18-3.3,1.53-6.79,2.3-10.48,2.3s-7.19-.73-10.48-2.21c-3.3-1.47-6.18-3.5-8.64-6.09-2.46-2.59-4.42-5.62-5.87-9.1-1.45-3.47-2.18-7.15-2.18-11.04v-.18c0-3.88.7-7.56,2.1-11.04,1.4-3.47,3.33-6.5,5.79-9.1,2.46-2.59,5.34-4.65,8.64-6.18,3.3-1.53,6.85-2.3,10.65-2.3s7.18.77,10.48,2.3c3.3,1.53,6.18,3.59,8.64,6.18,2.46,2.59,4.42,5.62,5.87,9.1,1.45,3.48,2.18,7.15,2.18,11.04s-.73,7.57-2.18,11.04Z"/>
    <path class="cls-1" d="M623.67,89.67c-2.35-5.65-5.54-10.6-9.56-14.84-4.03-4.24-8.72-7.59-14.09-10.07-5.37-2.47-11.13-3.71-17.28-3.71s-11.94,1.24-17.36,3.71c-5.43,2.47-10.15,5.83-14.18,10.07-4.03,4.24-7.19,9.19-9.48,14.84-2.29,5.65-3.44,11.72-3.44,18.19v72.89h17.28v-35.97c3.8,3.06,7.99,5.48,12.58,7.24,4.58,1.77,9.45,2.65,14.59,2.65,6.15,0,11.91-1.24,17.28-3.71,5.37-2.47,10.07-5.83,14.09-10.07,4.03-4.24,7.21-9.18,9.56-14.83,2.35-5.65,3.52-11.72,3.52-18.19s-1.17-12.54-3.52-18.19ZM607.73,118.9c-1.46,3.47-3.41,6.51-5.87,9.1-2.46,2.59-5.34,4.65-8.64,6.18-3.3,1.53-6.79,2.3-10.48,2.3s-7.19-.73-10.48-2.21c-3.3-1.47-6.18-3.5-8.64-6.09-2.46-2.59-4.42-5.62-5.87-9.1-1.45-3.47-2.18-7.15-2.18-11.04v-.18c0-3.88.7-7.56,2.1-11.04,1.4-3.47,3.33-6.5,5.79-9.1,2.46-2.59,5.34-4.65,8.64-6.18,3.3-1.53,6.85-2.3,10.65-2.3s7.18.77,10.48,2.3c3.3,1.53,6.18,3.59,8.64,6.18,2.46,2.59,4.42,5.62,5.87,9.1,1.45,3.48,2.18,7.15,2.18,11.04s-.73,7.57-2.18,11.04Z"/>
    <path class="cls-1" d="M512.82,82.34c-3.13-5.94-7.33-10.74-12.58-14.39-3.02-2.12-6.35-3.77-9.98-4.95-3.64-1.17-7.41-1.76-11.32-1.76s-7.69.59-11.32,1.76c-3.64,1.18-6.96,2.83-9.98,4.95v-32.49h-17.28v119.38h17.28v-52.98c0-3.06.56-5.94,1.68-8.65,1.12-2.71,2.63-5.09,4.53-7.15,1.9-2.06,4.16-3.68,6.79-4.86,2.63-1.18,5.39-1.77,8.3-1.77s5.65.59,8.22,1.77c2.57,1.18,4.83,2.8,6.79,4.86,1.96,2.06,3.49,4.45,4.61,7.15,1.12,2.71,1.68,5.59,1.68,8.65v52.98h17.28v-52.98c0-7.06-1.57-13.57-4.7-19.52Z"/>
  </g>
  <g>
    <path class="cls-1" d="M249.75,199.64v3.85h-12.28v42.59h-4.43v-42.59h-12.34v-3.85h29.05Z"/>
    <path class="cls-1" d="M305.64,246.08l-10.95-19.4h-8.17v19.4h-4.43v-46.44h13.29c4.94,0,8.68,1.24,11.24,3.72,2.55,2.48,3.83,5.74,3.83,9.77,0,3.37-.92,6.24-2.75,8.6-1.84,2.37-4.55,3.91-8.13,4.62l11.39,19.73h-5.32ZM286.53,222.89h8.93c3.46,0,6.07-.89,7.82-2.66,1.75-1.77,2.63-4.14,2.63-7.11s-.84-5.41-2.53-7.08c-1.69-1.66-4.35-2.49-7.98-2.49h-8.86v19.33Z"/>
    <path class="cls-1" d="M370.21,235.05h-20.13l-3.86,11.03h-4.68l16.14-45.84h5l16.08,45.84h-4.68l-3.86-11.03ZM368.88,231.2l-8.74-25.11-8.74,25.11h17.47Z"/>
    <path class="cls-1" d="M444.52,246.08h-4.43l-24.5-39.07v39.07h-4.43v-46.44h4.43l24.5,39v-39h4.43v46.44Z"/>
    <path class="cls-1" d="M485.63,244.95c-2.22-1.06-3.96-2.55-5.22-4.45-1.27-1.9-1.94-4.03-2.03-6.38h4.68c.21,2.26,1.16,4.24,2.85,5.95,1.69,1.71,4.16,2.56,7.41,2.56,3,0,5.37-.81,7.12-2.43,1.75-1.62,2.63-3.66,2.63-6.15,0-1.99-.49-3.6-1.46-4.82-.97-1.22-2.17-2.13-3.61-2.72-1.44-.6-3.42-1.25-5.95-1.96-2.95-.84-5.3-1.66-7.03-2.46-1.73-.8-3.21-2.04-4.43-3.72-1.22-1.68-1.84-3.96-1.84-6.84,0-2.39.59-4.53,1.77-6.41,1.18-1.88,2.85-3.36,5-4.42,2.15-1.06,4.62-1.59,7.41-1.59,4.09,0,7.39,1.05,9.91,3.16,2.51,2.1,3.96,4.82,4.34,8.14h-4.81c-.3-1.9-1.29-3.6-2.98-5.08-1.69-1.48-3.97-2.23-6.84-2.23-2.66,0-4.87.74-6.65,2.23-1.77,1.48-2.66,3.51-2.66,6.08,0,1.95.48,3.52,1.46,4.72.97,1.2,2.18,2.1,3.64,2.72,1.46.62,3.43,1.29,5.92,1.99,2.87.84,5.19,1.67,6.96,2.49,1.77.82,3.27,2.07,4.49,3.75,1.22,1.68,1.84,3.94,1.84,6.78,0,2.17-.55,4.23-1.65,6.18-1.1,1.95-2.72,3.52-4.87,4.72-2.15,1.2-4.73,1.79-7.72,1.79s-5.48-.53-7.69-1.59Z"/>
    <path class="cls-1" d="M565.98,222.62c-2.49,2.44-6.22,3.65-11.2,3.65h-8.93v19.8h-4.43v-46.44h13.36c4.94,0,8.66,1.22,11.17,3.65,2.51,2.44,3.77,5.67,3.77,9.7s-1.25,7.2-3.73,9.63ZM565.16,212.99c0-3.1-.82-5.45-2.47-7.04-1.65-1.59-4.28-2.39-7.91-2.39h-8.93v18.74h8.93c6.92,0,10.38-3.1,10.38-9.3Z"/>
    <path class="cls-1" d="M611.18,243.52c-3.33-2.02-5.96-4.83-7.88-8.44-1.92-3.61-2.88-7.7-2.88-12.26s.96-8.65,2.88-12.26c1.92-3.61,4.55-6.42,7.88-8.44,3.33-2.02,7.05-3.02,11.14-3.02s7.87,1.01,11.2,3.02c3.33,2.02,5.95,4.83,7.85,8.44,1.9,3.61,2.85,7.7,2.85,12.26s-.95,8.65-2.85,12.26c-1.9,3.61-4.52,6.42-7.85,8.44-3.33,2.02-7.07,3.02-11.2,3.02s-7.81-1.01-11.14-3.02ZM631.18,240.1c2.62-1.59,4.68-3.89,6.2-6.88,1.52-2.99,2.28-6.45,2.28-10.4s-.76-7.4-2.28-10.36c-1.52-2.97-3.59-5.25-6.2-6.84-2.62-1.59-5.57-2.39-8.86-2.39s-6.25.8-8.86,2.39c-2.62,1.59-4.68,3.88-6.2,6.84-1.52,2.97-2.28,6.42-2.28,10.36s.76,7.41,2.28,10.4c1.52,2.99,3.59,5.28,6.2,6.88,2.62,1.59,5.57,2.39,8.86,2.39s6.24-.8,8.86-2.39Z"/>
    <path class="cls-1" d="M701.19,246.08l-10.95-19.4h-8.17v19.4h-4.43v-46.44h13.29c4.94,0,8.68,1.24,11.24,3.72,2.55,2.48,3.83,5.74,3.83,9.77,0,3.37-.92,6.24-2.75,8.6-1.84,2.37-4.55,3.91-8.13,4.62l11.39,19.73h-5.32ZM682.07,222.89h8.93c3.46,0,6.07-.89,7.82-2.66,1.75-1.77,2.63-4.14,2.63-7.11s-.84-5.41-2.53-7.08c-1.69-1.66-4.35-2.49-7.98-2.49h-8.86v19.33Z"/>
    <path class="cls-1" d="M766,199.64v3.85h-12.28v42.59h-4.43v-42.59h-12.34v-3.85h29.05Z"/>
    <path class="cls-1" d="M802.78,203.42v17.34h16.77v3.85h-16.77v17.61h18.67v3.85h-23.1v-46.51h23.1v3.85h-18.67Z"/>
    <path class="cls-1" d="M861.23,244.95c-2.22-1.06-3.96-2.55-5.22-4.45-1.27-1.9-1.94-4.03-2.03-6.38h4.68c.21,2.26,1.16,4.24,2.85,5.95,1.69,1.71,4.16,2.56,7.41,2.56,3,0,5.37-.81,7.12-2.43,1.75-1.62,2.63-3.66,2.63-6.15,0-1.99-.49-3.6-1.46-4.82-.97-1.22-2.17-2.13-3.61-2.72-1.44-.6-3.42-1.25-5.95-1.96-2.95-.84-5.3-1.66-7.03-2.46-1.73-.8-3.21-2.04-4.43-3.72-1.22-1.68-1.84-3.96-1.84-6.84,0-2.39.59-4.53,1.77-6.41,1.18-1.88,2.85-3.36,5-4.42,2.15-1.06,4.62-1.59,7.41-1.59,4.09,0,7.39,1.05,9.91,3.16,2.51,2.1,3.96,4.82,4.34,8.14h-4.81c-.3-1.9-1.29-3.6-2.98-5.08-1.69-1.48-3.97-2.23-6.84-2.23-2.66,0-4.87.74-6.65,2.23-1.77,1.48-2.66,3.51-2.66,6.08,0,1.95.48,3.52,1.46,4.72.97,1.2,2.18,2.1,3.64,2.72,1.46.62,3.43,1.29,5.92,1.99,2.87.84,5.19,1.67,6.96,2.49,1.77.82,3.27,2.07,4.49,3.75,1.22,1.68,1.84,3.94,1.84,6.78,0,2.17-.55,4.23-1.65,6.18-1.1,1.95-2.72,3.52-4.87,4.72-2.15,1.2-4.73,1.79-7.72,1.79s-5.48-.53-7.69-1.59Z"/>
  </g>
</svg>